# xmcd CD database file
#
# Track frame offsets:
#	150
#	22656
#	45596
#	68080
#
# Disc length: 1210 seconds
#
# Revision: 0
# Processed by: cddbd v1.5.2PL0 Copyright (c) Steve Scherf et al.
# Submitted via: CD2WAV32(JP) R3.22
#
DISCID=2404b804
DTITLE=ささきいさお - 風の会話
DYEAR=2010
DGENRE=Anime(J)
TTITLE0=風の会話
TTITLE1=死ぬほど抱きしめて
TTITLE2=風の会話（オリジナル・カラオケ）
TTITLE3=死ぬほど抱きしめて（オリジナル・カラオケ）
EXTD=
EXTT0=
EXTT1=
EXTT2=
EXTT3=
PLAYORDER=
